# xmcd CD database file
#
# Track frame offsets:
#	150
#	21125
#	41187
#	58572
#	75262
#	99212
#	115815
#	128337
#	146387
#	162375
#
# Disc length: 2368 seconds
#
# Revision: 5
# Processed by: cddbd v1.5.1PL0 Copyright (c) Steve Scherf et al.
# Submitted via: CDex 1.50
#
DISCID=70093e0a
DTITLE=Paul Brandt - That's the Truth
DYEAR=1999
DGENRE=Country
TTITLE0=That's the Truth
TTITLE1=It's A Beautiful Thing
TTITLE2=That Hurts
TTITLE3=There's A World Out There
TTITLE4=The Sycamore Tree
TTITLE5=A Love That Strong
TTITLE6=Add 'Em All Up
TTITLE7=Scrap Piece Of Paper
TTITLE8=Really And Truly
TTITLE9=Let's Live It Up
EXTD=YEAR: 1999
EXTT0=
EXTT1=
EXTT2=
EXTT3=
EXTT4=
EXTT5=
EXTT6=
EXTT7=
EXTT8=
EXTT9=
PLAYORDER=
